<svg id="Layer_1" data-name="Layer 1" xmlns="http://www.w3.org/2000/svg" viewBox="0 0 119.89 26.94"><defs><style>.cls-1{fill:#666;}.cls-2{fill:#4fa0ca;stroke:#4fa0ca;}.cls-2,.cls-3{stroke-miterlimit:10;stroke-width:0.25px;}.cls-3{fill:#a067b0;stroke:#a067b0;}</style></defs><title>breanna-gamble-logo</title><path class="cls-1" d="M15.06,52.74V44.25H17.5a4.85,4.85,0,0,1,1.26.14,2.39,2.39,0,0,1,.88.42,1.73,1.73,0,0,1,.52.68,2.31,2.31,0,0,1,.17.91,1.84,1.84,0,0,1-.12.65,2,2,0,0,1-.34.58,2.18,2.18,0,0,1-.54.46,2.61,2.61,0,0,1-.73.3,2.77,2.77,0,0,1,1.54.67,1.8,1.8,0,0,1,.54,1.36,2.37,2.37,0,0,1-.19,1,2,2,0,0,1-.56.73,2.55,2.55,0,0,1-.9.46,4.23,4.23,0,0,1-1.21.16Zm.61-4.52h1.84a3,3,0,0,0,1-.15,2,2,0,0,0,.68-.4,1.54,1.54,0,0,0,.39-.56,1.7,1.7,0,0,0,.13-.64,1.57,1.57,0,0,0-.54-1.3,2.63,2.63,0,0,0-1.68-.44H15.67Zm0,.45v3.58H17.8a2.56,2.56,0,0,0,1.69-.48,1.68,1.68,0,0,0,.57-1.36,1.66,1.66,0,0,0-.15-.72,1.51,1.51,0,0,0-.44-.55,2.06,2.06,0,0,0-.71-.35,3.49,3.49,0,0,0-1-.12Z" transform="translate(-15.06 -36.4)"/><path class="cls-1" d="M23.54,48.9v3.84h-.61V44.25h2.17a3.54,3.54,0,0,1,2.2.57A2,2,0,0,1,28,46.48a2.27,2.27,0,0,1-.17.89,2.08,2.08,0,0,1-.48.71,2.57,2.57,0,0,1-.76.5,3.39,3.39,0,0,1-1,.25,1,1,0,0,1,.26.24l2.92,3.67h-.53a.35.35,0,0,1-.17,0,.43.43,0,0,1-.14-.12l-2.72-3.44A.61.61,0,0,0,25,49a.92.92,0,0,0-.36-.05Zm0-.46H25a3.48,3.48,0,0,0,1-.14,2.18,2.18,0,0,0,.76-.39,1.67,1.67,0,0,0,.47-.61,1.9,1.9,0,0,0,.16-.8,1.56,1.56,0,0,0-.59-1.34,2.88,2.88,0,0,0-1.73-.44H23.54Z" transform="translate(-15.06 -36.4)"/><path class="cls-1" d="M35.41,44.25v.51H30.94v3.43h3.72v.5H30.94v3.54h4.47v.51H30.32V44.25Z" transform="translate(-15.06 -36.4)"/><path class="cls-1" d="M43.8,52.74h-.47a.21.21,0,0,1-.14,0,.3.3,0,0,1-.08-.12l-1-2.47H37.93l-1,2.47a.26.26,0,0,1-.08.11.23.23,0,0,1-.14,0h-.47l3.47-8.49h.61Zm-5.68-3.08h3.8l-1.73-4.29q0-.1-.08-.23L40,44.86l-.08.27-.08.24Z" transform="translate(-15.06 -36.4)"/><path class="cls-1" d="M45.58,44.27a.29.29,0,0,1,.1.09l5.5,7.36a3.44,3.44,0,0,1,0-.35V44.25h.54v8.49H51.4a.26.26,0,0,1-.22-.12l-5.52-7.37a3.37,3.37,0,0,1,0,.34v7.15h-.53V44.25h.3Z" transform="translate(-15.06 -36.4)"/><path class="cls-1" d="M54.65,44.27a.29.29,0,0,1,.1.09l5.5,7.36a3.44,3.44,0,0,1,0-.35V44.25h.54v8.49h-.29a.26.26,0,0,1-.22-.12l-5.52-7.37a3.37,3.37,0,0,1,0,.34v7.15h-.53V44.25h.3Z" transform="translate(-15.06 -36.4)"/><path class="cls-1" d="M69.68,52.74h-.47a.21.21,0,0,1-.14,0,.3.3,0,0,1-.08-.12l-1-2.47H63.81l-1,2.47a.26.26,0,0,1-.08.11.23.23,0,0,1-.14,0h-.47l3.47-8.49h.61ZM64,49.65h3.8l-1.73-4.29q0-.1-.08-.23l-.08-.27-.08.27-.08.24Z" transform="translate(-15.06 -36.4)"/><path class="cls-2" d="M80.48,55.55c.78,3.09,1.7,6.61,1.7,7.06,0,.29-.08.6-.44.6-1.69,0-3.38-2.62-3.38-3.79a5,5,0,0,1,1.8-3.75c-.12-.41-.22-.82-.32-1.21a2.53,2.53,0,0,1-2.45,2c-2.06,0-3-2.05-3-4.17,0-2.29,1.09-4.67,3-4.67A1.7,1.7,0,0,1,79,49.36c0,.18-.13.34-.22.34s-.08,0-.08-.14a1.68,1.68,0,0,0-1.54-1.75c-1.48,0-2.36,2.13-2.36,4.26s.88,4.22,2.89,4.22c1.19,0,1.81-1,2.08-2.22a16.42,16.42,0,0,1-.59-3.38c0-.4.14-.47.25-.47.4,0,.72,1.07.72,2.33A7.55,7.55,0,0,1,80,53.7c.12.53.26,1.1.42,1.69.5-.46,1.07-.91,1.62-1.38a.19.19,0,0,1,.12,0,.09.09,0,0,1,.08,0h0c0,.07-.2.24-.2.24C81.44,54.73,80.91,55.15,80.48,55.55Zm1.26,7.28c.23,0,.29-.17.29-.34,0-.56-1-3.68-1.83-6.67a4.07,4.07,0,0,0-1.49,3C78.71,60.18,80.28,62.83,81.74,62.83ZM79.51,50.58s-.07.1-.07.23a16.57,16.57,0,0,0,.44,2.3,7.12,7.12,0,0,0,0-.72C79.92,51.39,79.73,50.58,79.51,50.58Z" transform="translate(-15.06 -36.4)"/><path class="cls-3" d="M76.83,44C76,41,75,37.57,75,37.12c0-.28.08-.59.45-.6,1.73,0,3.49,2.52,3.51,3.68a4.8,4.8,0,0,1-1.79,3.71c.13.4.23.8.35,1.19a2.57,2.57,0,0,1,2.48-2c2.11,0,3.09,2,3.12,4.06,0,2.25-1.06,4.6-3,4.63a1.69,1.69,0,0,1-1.62-1.68c0-.18.13-.33.22-.33s.09,0,.09.14a1.68,1.68,0,0,0,1.59,1.7c1.51,0,2.39-2.13,2.36-4.22s-1-4.14-3-4.11c-1.21,0-1.84,1-2.09,2.21a15.58,15.58,0,0,1,.65,3.31c0,.39-.14.46-.25.46-.41,0-.75-1-.77-2.28a7.19,7.19,0,0,1,.08-1.15c-.13-.52-.28-1.08-.45-1.66-.51.45-1.08.91-1.64,1.38a.2.2,0,0,1-.12,0,.09.09,0,0,1-.09,0h0c0-.07.21-.24.21-.24C75.86,44.85,76.4,44.43,76.83,44ZM75.45,36.9c-.23,0-.29.17-.29.33,0,.55,1.08,3.6,2,6.53a3.94,3.94,0,0,0,1.48-3C78.59,39.47,76.95,36.88,75.45,36.9Zm2.44,12s.07-.1.07-.23a15.7,15.7,0,0,0-.48-2.26,6.72,6.72,0,0,0,0,.71C77.47,48.12,77.67,48.91,77.89,48.9Z" transform="translate(-15.06 -36.4)"/><path class="cls-1" d="M92.05,52.33a6.42,6.42,0,0,0,.8,0,4.28,4.28,0,0,0,.67-.13,4.14,4.14,0,0,0,.59-.22c.19-.09.37-.18.56-.29V49.36H93a.16.16,0,0,1-.11,0,.13.13,0,0,1,0-.1v-.34h2.35v3a5.38,5.38,0,0,1-.66.4,4.3,4.3,0,0,1-.73.29,5.63,5.63,0,0,1-.84.18,7.13,7.13,0,0,1-1,.06,4.41,4.41,0,0,1-1.68-.31,3.72,3.72,0,0,1-1.3-.88,4,4,0,0,1-.84-1.37,5.47,5.47,0,0,1,0-3.57A3.89,3.89,0,0,1,89,45.33a3.76,3.76,0,0,1,1.34-.88,4.81,4.81,0,0,1,1.77-.31,5.56,5.56,0,0,1,.9.07,4.16,4.16,0,0,1,.77.19,3.6,3.6,0,0,1,.66.32,4.47,4.47,0,0,1,.59.43l-.16.26a.17.17,0,0,1-.15.09l-.1,0a1.25,1.25,0,0,1-.26-.17,2.77,2.77,0,0,0-.46-.28,3.81,3.81,0,0,0-.73-.26,4.31,4.31,0,0,0-1.06-.11,4,4,0,0,0-1.49.26,3.16,3.16,0,0,0-1.14.76,3.35,3.35,0,0,0-.73,1.2,4.67,4.67,0,0,0-.25,1.59,4.74,4.74,0,0,0,.26,1.61,3.46,3.46,0,0,0,.72,1.21,3.11,3.11,0,0,0,1.12.76A3.79,3.79,0,0,0,92.05,52.33Z" transform="translate(-15.06 -36.4)"/><path class="cls-1" d="M103.77,52.74h-.47a.21.21,0,0,1-.14,0,.3.3,0,0,1-.08-.12l-1-2.47H97.91l-1,2.47a.26.26,0,0,1-.08.11.22.22,0,0,1-.14,0h-.47l3.47-8.49h.61Zm-5.68-3.08h3.8l-1.73-4.29c0-.07-.06-.14-.08-.23l-.08-.27-.08.27-.08.24Z" transform="translate(-15.06 -36.4)"/><path class="cls-1" d="M109.35,50.62l.07-.19.09-.18,3.34-5.9a.22.22,0,0,1,.1-.1l.13,0h.43v8.49H113V45.5a3.17,3.17,0,0,1,0-.33l-3.34,5.93a.26.26,0,0,1-.24.16h-.1a.27.27,0,0,1-.24-.16l-3.43-5.94a3.22,3.22,0,0,1,0,.34v7.24h-.53V44.25h.42l.13,0a.21.21,0,0,1,.1.1l3.43,5.9A2.4,2.4,0,0,1,109.35,50.62Z" transform="translate(-15.06 -36.4)"/><path class="cls-1" d="M116,52.74V44.25h2.44a4.81,4.81,0,0,1,1.26.14,2.37,2.37,0,0,1,.88.42,1.73,1.73,0,0,1,.52.68,2.31,2.31,0,0,1,.17.91,1.84,1.84,0,0,1-.12.65,2,2,0,0,1-.34.58,2.16,2.16,0,0,1-.54.46,2.59,2.59,0,0,1-.73.3,2.76,2.76,0,0,1,1.54.67,1.8,1.8,0,0,1,.54,1.36,2.37,2.37,0,0,1-.19,1,2,2,0,0,1-.56.73,2.54,2.54,0,0,1-.9.46,4.23,4.23,0,0,1-1.21.16Zm.61-4.52h1.84a3,3,0,0,0,1-.15,2,2,0,0,0,.68-.4,1.53,1.53,0,0,0,.39-.56,1.7,1.7,0,0,0,.13-.64,1.58,1.58,0,0,0-.54-1.3,2.63,2.63,0,0,0-1.68-.44h-1.83Zm0,.45v3.58h2.13a2.56,2.56,0,0,0,1.69-.48A1.69,1.69,0,0,0,121,50.4a1.66,1.66,0,0,0-.15-.72,1.51,1.51,0,0,0-.44-.55,2,2,0,0,0-.71-.35,3.47,3.47,0,0,0-1-.12Z" transform="translate(-15.06 -36.4)"/><path class="cls-1" d="M124.33,52.21h4v.52h-4.64V44.25h.61Z" transform="translate(-15.06 -36.4)"/><path class="cls-1" d="M134.94,44.25v.51h-4.47v3.43h3.72v.5h-3.72v3.54h4.47v.51h-5.09V44.25Z" transform="translate(-15.06 -36.4)"/></svg>